<?xml version="1.0" standalone="no"?>
<!DOCTYPE svg PUBLIC "-//W3C//DTD SVG 20010904//EN"
 "http://www.w3.org/TR/2001/REC-SVG-20010904/DTD/svg10.dtd">
<svg version="1.0" xmlns="http://www.w3.org/2000/svg"
 width="132.000000pt" height="132.000000pt" viewBox="0 0 132.000000 132.000000"
 preserveAspectRatio="xMidYMid meet">

<g transform="translate(0.000000,132.000000) scale(0.100000,-0.100000)"
fill="#000000" stroke="none">
<path d="M669 1173 c-6 -16 -54 -145 -105 -288 -111 -305 -114 -285 38 -285
72 0 98 -3 98 -12 0 -12 -8 -52 -25 -125 l-5 -23 -241 0 c-226 0 -241 1 -234
18 4 9 46 119 94 244 l86 228 45 0 c25 0 51 4 59 9 27 17 -1 31 -64 31 l-63 0
-40 -102 c-99 -254 -164 -439 -158 -453 5 -13 45 -15 275 -15 l271 0 5 23 c29
128 43 202 39 209 -3 4 -54 8 -115 8 -60 0 -109 3 -109 8 0 4 41 121 91 260
l92 252 128 0 129 0 -9 -22 c-5 -13 -34 -81 -66 -152 -31 -71 -54 -135 -51
-142 4 -11 31 -14 110 -14 61 0 107 -4 111 -10 4 -6 -14 -46 -39 -90 -49 -85
-54 -100 -32 -100 19 0 128 185 124 208 -3 15 -19 17 -116 20 -61 1 -112 6
-112 10 0 4 29 75 64 157 47 109 62 153 54 162 -8 10 -52 13 -164 13 l-154 0
-11 -27z"/>
<path d="M800 360 c-67 -111 -124 -199 -126 -197 -2 2 0 37 5 78 6 46 6 78 0
84 -18 18 -28 -10 -40 -118 -10 -84 -10 -110 -1 -119 9 -9 17 -10 30 -2 20 13
283 445 279 458 -10 31 -37 -3 -147 -184z"/>
</g>
</svg>
